<svg width="197" height="28" viewBox="0 0 197 28" fill="none" xmlns="http://www.w3.org/2000/svg">
    <rect x="121" width="76" height="26" rx="7" fill="#0920F5" />
    <path
        d="M135.298 19L132.153 7.134H134.992L136.386 13.169L137.083 16.586H137.219L137.933 13.169L139.344 7.134H142.047L138.902 19H135.298ZM152.172 19C151.651 19 151.232 18.8697 150.914 18.609C150.597 18.337 150.41 17.9517 150.353 17.453H150.268C150.11 18.031 149.792 18.4673 149.316 18.762C148.852 19.0567 148.279 19.204 147.599 19.204C146.749 19.204 146.064 18.9773 145.542 18.524C145.032 18.0593 144.777 17.4133 144.777 16.586C144.777 15.668 145.112 14.988 145.78 14.546C146.449 14.104 147.429 13.883 148.721 13.883H150.132V13.441C150.132 12.9197 150.008 12.5287 149.758 12.268C149.52 11.996 149.112 11.86 148.534 11.86C148.002 11.86 147.571 11.962 147.242 12.166C146.914 12.37 146.63 12.6363 146.392 12.965L145.015 11.741C145.31 11.2423 145.769 10.8343 146.392 10.517C147.027 10.1883 147.837 10.024 148.823 10.024C150.025 10.024 150.96 10.3017 151.628 10.857C152.308 11.401 152.648 12.2283 152.648 13.339V17.181H153.617V19H152.172ZM148.551 17.555C148.993 17.555 149.367 17.4473 149.673 17.232C149.979 17.0167 150.132 16.705 150.132 16.297V15.243H148.789C147.758 15.243 147.242 15.5887 147.242 16.28V16.62C147.242 16.926 147.361 17.1583 147.599 17.317C147.837 17.4757 148.155 17.555 148.551 17.555ZM162.366 17.402H162.264C162.071 17.9007 161.765 18.3257 161.346 18.677C160.938 19.0283 160.382 19.204 159.68 19.204C159.26 19.204 158.875 19.136 158.524 19C158.172 18.8527 157.872 18.6373 157.623 18.354C157.373 18.0707 157.175 17.725 157.028 17.317C156.892 16.909 156.824 16.4387 156.824 15.906V10.228H159.34V15.566C159.34 16.6993 159.833 17.266 160.819 17.266C161.011 17.266 161.198 17.2433 161.38 17.198C161.572 17.1413 161.737 17.062 161.873 16.96C162.02 16.8467 162.139 16.7107 162.23 16.552C162.32 16.3933 162.366 16.2063 162.366 15.991V10.228H164.882V19H162.366V17.402ZM168.836 17.045H171.522V8.375H168.836V6.42H174.038V17.045H176.724V19H168.836V17.045ZM185.353 19C184.447 19 183.772 18.762 183.33 18.286C182.888 17.81 182.667 17.2037 182.667 16.467V12.183H180.287V10.228H181.834C182.208 10.228 182.475 10.1543 182.633 10.007C182.792 9.85967 182.871 9.58767 182.871 9.191V7.134H185.183V10.228H188.6V12.183H185.183V17.045H188.6V19H185.353Z"
        fill="white" />
    <path
        d="M24.72 0.599999V27H17.08L8.88 12.72L6.88 8.8H6.84L7 13.68V27H0.92V0.599999H8.56L16.76 14.88L18.76 18.8H18.8L18.64 13.92V0.599999H24.72ZM30.5684 27V0.599999H51.1284V5.92H37.4484V11.28H48.3284V16.28H37.4484V21.68H51.6484V27H30.5684ZM86.3628 0.599999V27H80.2828V14.88L80.4828 6.76H80.4028L73.8828 27H68.3228L61.8028 6.76H61.7228L61.9228 14.88V27H55.8028V0.599999H65.6028L69.7628 14.04L71.2428 19.64H71.3228L72.8428 14.08L76.9628 0.599999H86.3628ZM104.049 0.199999C106.716 0.199999 109.009 0.746666 110.929 1.84C112.876 2.90667 114.369 4.45333 115.409 6.48C116.449 8.50667 116.969 10.9467 116.969 13.8C116.969 16.6533 116.449 19.0933 115.409 21.12C114.369 23.1467 112.876 24.7067 110.929 25.8C109.009 26.8667 106.716 27.4 104.049 27.4C101.382 27.4 99.0757 26.8667 97.1291 25.8C95.1824 24.7067 93.6891 23.1467 92.6491 21.12C91.6091 19.0933 91.0891 16.6533 91.0891 13.8C91.0891 10.9467 91.6091 8.50667 92.6491 6.48C93.6891 4.45333 95.1824 2.90667 97.1291 1.84C99.0757 0.746666 101.382 0.199999 104.049 0.199999ZM104.049 5.6C102.769 5.6 101.689 5.90667 100.809 6.52C99.9291 7.13333 99.2624 8.05333 98.8091 9.28C98.3557 10.48 98.1291 11.9867 98.1291 13.8C98.1291 15.5867 98.3557 17.0933 98.8091 18.32C99.2624 19.5467 99.9291 20.4667 100.809 21.08C101.689 21.6933 102.769 22 104.049 22C105.329 22 106.396 21.6933 107.249 21.08C108.129 20.4667 108.796 19.5467 109.249 18.32C109.702 17.0933 109.929 15.5867 109.929 13.8C109.929 11.9867 109.702 10.48 109.249 9.28C108.796 8.05333 108.129 7.13333 107.249 6.52C106.396 5.90667 105.329 5.6 104.049 5.6Z"
        fill="#0920F5" />
</svg>