<svg width="228" height="47" viewBox="0 0 228 47" fill="none" xmlns="http://www.w3.org/2000/svg">
    <rect x="124" y="10" width="104" height="26" rx="7" fill="#0920F5" />
    <path
        d="M137.375 19.225V29H134.825V19.225H131.408V17.134H140.792V19.225H137.375ZM148.231 29.204C146.758 29.204 145.642 28.796 144.882 27.98C144.123 27.164 143.743 26.0533 143.743 24.648C143.743 23.934 143.84 23.2937 144.032 22.727C144.236 22.149 144.52 21.6617 144.882 21.265C145.256 20.857 145.704 20.551 146.225 20.347C146.758 20.1317 147.353 20.024 148.01 20.024C148.668 20.024 149.257 20.1317 149.778 20.347C150.3 20.551 150.742 20.8457 151.104 21.231C151.467 21.6163 151.745 22.0867 151.937 22.642C152.141 23.186 152.243 23.798 152.243 24.478V25.226H146.242V25.379C146.242 25.9457 146.418 26.4047 146.769 26.756C147.121 27.096 147.636 27.266 148.316 27.266C148.838 27.266 149.285 27.1697 149.659 26.977C150.033 26.773 150.356 26.5067 150.628 26.178L151.988 27.657C151.648 28.0763 151.172 28.439 150.56 28.745C149.948 29.051 149.172 29.204 148.231 29.204ZM148.027 21.826C147.483 21.826 147.047 21.996 146.718 22.336C146.401 22.6647 146.242 23.1123 146.242 23.679V23.815H149.778V23.679C149.778 23.101 149.62 22.6477 149.302 22.319C148.996 21.9903 148.571 21.826 148.027 21.826ZM156.045 27.045H158.068V22.183H156.045V20.228H160.584V22.71H160.703C160.782 22.3927 160.89 22.0867 161.026 21.792C161.173 21.486 161.354 21.2197 161.57 20.993C161.796 20.755 162.068 20.568 162.386 20.432C162.703 20.296 163.077 20.228 163.508 20.228H164.341V22.54H162.471C161.847 22.54 161.377 22.727 161.06 23.101C160.742 23.4637 160.584 23.9113 160.584 24.444V27.045H163.474V29H156.045V27.045ZM167.19 29V20.228H169.213V21.52H169.332C169.468 21.112 169.661 20.7607 169.91 20.466C170.171 20.1713 170.533 20.024 170.998 20.024C171.848 20.024 172.369 20.5227 172.562 21.52H172.664C172.732 21.316 172.817 21.1233 172.919 20.942C173.021 20.7607 173.146 20.602 173.293 20.466C173.44 20.33 173.616 20.2223 173.82 20.143C174.024 20.0637 174.262 20.024 174.534 20.024C175.758 20.024 176.37 20.925 176.37 22.727V29H174.347V22.982C174.347 22.574 174.273 22.2907 174.126 22.132C173.99 21.962 173.809 21.877 173.582 21.877C173.367 21.877 173.18 21.9507 173.021 22.098C172.874 22.234 172.8 22.4493 172.8 22.744V29H170.76V22.982C170.76 22.574 170.692 22.2907 170.556 22.132C170.431 21.962 170.256 21.877 170.029 21.877C169.802 21.877 169.61 21.9507 169.451 22.098C169.292 22.234 169.213 22.4493 169.213 22.744V29H167.19ZM184.217 19.106C183.651 19.106 183.254 18.9927 183.027 18.766C182.812 18.528 182.704 18.2447 182.704 17.916V17.423C182.704 17.083 182.812 16.7997 183.027 16.573C183.254 16.3463 183.651 16.233 184.217 16.233C184.784 16.233 185.175 16.3463 185.39 16.573C185.617 16.7997 185.73 17.083 185.73 17.423V17.916C185.73 18.2447 185.617 18.528 185.39 18.766C185.175 18.9927 184.784 19.106 184.217 19.106ZM180.171 27.045H182.959V22.183H180.171V20.228H185.475V27.045H188.059V29H180.171V27.045ZM191.572 29V20.228H194.088V21.826H194.19C194.292 21.5767 194.416 21.3443 194.564 21.129C194.711 20.9137 194.887 20.7267 195.091 20.568C195.306 20.398 195.55 20.2677 195.822 20.177C196.105 20.075 196.422 20.024 196.774 20.024C197.193 20.024 197.578 20.0977 197.93 20.245C198.281 20.381 198.581 20.5907 198.831 20.874C199.08 21.1573 199.273 21.503 199.409 21.911C199.556 22.319 199.63 22.7893 199.63 23.322V29H197.114V23.662C197.114 22.5287 196.621 21.962 195.635 21.962C195.442 21.962 195.249 21.9903 195.057 22.047C194.875 22.0923 194.711 22.1717 194.564 22.285C194.416 22.387 194.297 22.5173 194.207 22.676C194.127 22.8347 194.088 23.0217 194.088 23.237V29H191.572ZM210.639 29C210.118 29 209.698 28.8697 209.381 28.609C209.064 28.337 208.877 27.9517 208.82 27.453H208.735C208.576 28.031 208.259 28.4673 207.783 28.762C207.318 29.0567 206.746 29.204 206.066 29.204C205.216 29.204 204.53 28.9773 204.009 28.524C203.499 28.0593 203.244 27.4133 203.244 26.586C203.244 25.668 203.578 24.988 204.247 24.546C204.916 24.104 205.896 23.883 207.188 23.883H208.599V23.441C208.599 22.9197 208.474 22.5287 208.225 22.268C207.987 21.996 207.579 21.86 207.001 21.86C206.468 21.86 206.038 21.962 205.709 22.166C205.38 22.37 205.097 22.6363 204.859 22.965L203.482 21.741C203.777 21.2423 204.236 20.8343 204.859 20.517C205.494 20.1883 206.304 20.024 207.29 20.024C208.491 20.024 209.426 20.3017 210.095 20.857C210.775 21.401 211.115 22.2283 211.115 23.339V27.181H212.084V29H210.639ZM207.018 27.555C207.46 27.555 207.834 27.4473 208.14 27.232C208.446 27.0167 208.599 26.705 208.599 26.297V25.243H207.256C206.225 25.243 205.709 25.5887 205.709 26.28V26.62C205.709 26.926 205.828 27.1583 206.066 27.317C206.304 27.4757 206.621 27.555 207.018 27.555ZM215.41 27.045H218.096V18.375H215.41V16.42H220.612V27.045H223.298V29H215.41V27.045Z"
        fill="white" />
    <path
        d="M26.72 10.6V37H19.08L10.88 22.72L8.88 18.8H8.84L9 23.68V37H2.92V10.6H10.56L18.76 24.88L20.76 28.8H20.8L20.64 23.92V10.6H26.72ZM32.5684 37V10.6H53.1284V15.92H39.4484V21.28H50.3284V26.28H39.4484V31.68H53.6484V37H32.5684ZM88.3628 10.6V37H82.2828V24.88L82.4828 16.76H82.4028L75.8828 37H70.3228L63.8028 16.76H63.7228L63.9228 24.88V37H57.8028V10.6H67.6028L71.7628 24.04L73.2428 29.64H73.3228L74.8428 24.08L78.9628 10.6H88.3628ZM106.049 10.2C108.716 10.2 111.009 10.7467 112.929 11.84C114.876 12.9067 116.369 14.4533 117.409 16.48C118.449 18.5067 118.969 20.9467 118.969 23.8C118.969 26.6533 118.449 29.0933 117.409 31.12C116.369 33.1467 114.876 34.7067 112.929 35.8C111.009 36.8667 108.716 37.4 106.049 37.4C103.382 37.4 101.076 36.8667 99.1291 35.8C97.1824 34.7067 95.6891 33.1467 94.6491 31.12C93.6091 29.0933 93.0891 26.6533 93.0891 23.8C93.0891 20.9467 93.6091 18.5067 94.6491 16.48C95.6891 14.4533 97.1824 12.9067 99.1291 11.84C101.076 10.7467 103.382 10.2 106.049 10.2ZM106.049 15.6C104.769 15.6 103.689 15.9067 102.809 16.52C101.929 17.1333 101.262 18.0533 100.809 19.28C100.356 20.48 100.129 21.9867 100.129 23.8C100.129 25.5867 100.356 27.0933 100.809 28.32C101.262 29.5467 101.929 30.4667 102.809 31.08C103.689 31.6933 104.769 32 106.049 32C107.329 32 108.396 31.6933 109.249 31.08C110.129 30.4667 110.796 29.5467 111.249 28.32C111.702 27.0933 111.929 25.5867 111.929 23.8C111.929 21.9867 111.702 20.48 111.249 19.28C110.796 18.0533 110.129 17.1333 109.249 16.52C108.396 15.9067 107.329 15.6 106.049 15.6Z"
        fill="#0920F5" />
</svg>