<svg width="100" height="30" viewBox="0 0 172 49" fill="none" xmlns="http://www.w3.org/2000/svg">
    <circle cx="24.5" cy="24.5" r="24.5" fill="#0920F5" />
    <circle cx="24" cy="32" r="7" fill="white" />
    <circle cx="28.5" cy="19.5" r="4.5" fill="white" />
    <circle cx="20.5" cy="12.5" r="2.5" fill="white" />
    <path
        d="M79.72 11.6V38H72.08L63.88 23.72L61.88 19.8H61.84L62 24.68V38H55.92V11.6H63.56L71.76 25.88L73.76 29.8H73.8L73.64 24.92V11.6H79.72ZM85.5684 38V11.6H106.128V16.92H92.4484V22.28H103.328V27.28H92.4484V32.68H106.648V38H85.5684ZM141.363 11.6V38H135.283V25.88L135.483 17.76H135.403L128.883 38H123.323L116.803 17.76H116.723L116.923 25.88V38H110.803V11.6H120.603L124.763 25.04L126.243 30.64H126.323L127.843 25.08L131.963 11.6H141.363ZM159.049 11.2C161.716 11.2 164.009 11.7467 165.929 12.84C167.876 13.9067 169.369 15.4533 170.409 17.48C171.449 19.5067 171.969 21.9467 171.969 24.8C171.969 27.6533 171.449 30.0933 170.409 32.12C169.369 34.1467 167.876 35.7067 165.929 36.8C164.009 37.8667 161.716 38.4 159.049 38.4C156.382 38.4 154.076 37.8667 152.129 36.8C150.182 35.7067 148.689 34.1467 147.649 32.12C146.609 30.0933 146.089 27.6533 146.089 24.8C146.089 21.9467 146.609 19.5067 147.649 17.48C148.689 15.4533 150.182 13.9067 152.129 12.84C154.076 11.7467 156.382 11.2 159.049 11.2ZM159.049 16.6C157.769 16.6 156.689 16.9067 155.809 17.52C154.929 18.1333 154.262 19.0533 153.809 20.28C153.356 21.48 153.129 22.9867 153.129 24.8C153.129 26.5867 153.356 28.0933 153.809 29.32C154.262 30.5467 154.929 31.4667 155.809 32.08C156.689 32.6933 157.769 33 159.049 33C160.329 33 161.396 32.6933 162.249 32.08C163.129 31.4667 163.796 30.5467 164.249 29.32C164.702 28.0933 164.929 26.5867 164.929 24.8C164.929 22.9867 164.702 21.48 164.249 20.28C163.796 19.0533 163.129 18.1333 162.249 17.52C161.396 16.9067 160.329 16.6 159.049 16.6Z"
        fill="#0920F5" />
</svg>