<svg width="89" height="43" viewBox="0 0 89 43" fill="none" xmlns="http://www.w3.org/2000/svg">
    <path
        d="M26.562 41V25.864H30.5L35.428 33.982H35.538V25.864H39.212V41H35.626L30.346 32.134H30.236V41H26.562ZM42.3315 41V25.864H52.9355V28.812H46.1595V31.914H51.9015V34.818H46.1595V38.052H52.9355V41H42.3315ZM55.6733 41V25.864H60.9313L63.9453 34.84H64.0993L67.1133 25.864H72.3493V41H68.6753V31.166H68.5213L65.2433 41H62.6693L59.4133 31.166H59.2373V41H55.6733ZM81.6419 41.176C80.3659 41.176 79.3173 41.1027 78.4959 40.956C77.6893 40.7947 77.0586 40.5453 76.6039 40.208C76.1493 39.856 75.8119 39.3867 75.5919 38.8C75.3866 38.1987 75.2546 37.458 75.1959 36.578C75.1519 35.698 75.1299 34.6493 75.1299 33.432C75.1299 32.2147 75.1519 31.166 75.1959 30.286C75.2546 29.406 75.3866 28.6727 75.5919 28.086C75.8119 27.4847 76.1493 27.0153 76.6039 26.678C77.0586 26.326 77.6893 26.0767 78.4959 25.93C79.3173 25.7687 80.3659 25.688 81.6419 25.688C82.9033 25.688 83.9373 25.7687 84.7439 25.93C85.5653 26.0767 86.2106 26.326 86.6799 26.678C87.1493 27.0153 87.4866 27.4847 87.6919 28.086C87.8973 28.6727 88.0293 29.406 88.0879 30.286C88.1466 31.166 88.1759 32.2147 88.1759 33.432C88.1759 34.6493 88.1466 35.698 88.0879 36.578C88.0293 37.458 87.8973 38.1987 87.6919 38.8C87.4866 39.3867 87.1493 39.856 86.6799 40.208C86.2106 40.5453 85.5653 40.7947 84.7439 40.956C83.9373 41.1027 82.9033 41.176 81.6419 41.176ZM81.6419 38.228C82.1699 38.228 82.5953 38.2133 82.9179 38.184C83.2553 38.14 83.5193 38.0447 83.7099 37.898C83.9006 37.7367 84.0399 37.4873 84.1279 37.15C84.2159 36.8127 84.2673 36.3433 84.2819 35.742C84.3113 35.1407 84.3259 34.3707 84.3259 33.432C84.3259 32.4933 84.3113 31.7233 84.2819 31.122C84.2673 30.5207 84.2159 30.0513 84.1279 29.714C84.0399 29.3767 83.9006 29.1347 83.7099 28.988C83.5193 28.8267 83.2553 28.7313 82.9179 28.702C82.5953 28.658 82.1699 28.636 81.6419 28.636C81.1286 28.636 80.7033 28.658 80.3659 28.702C80.0286 28.7313 79.7646 28.8267 79.5739 28.988C79.3833 29.1347 79.2439 29.3767 79.1559 29.714C79.0679 30.0513 79.0093 30.5207 78.9799 31.122C78.9653 31.7233 78.9579 32.4933 78.9579 33.432C78.9579 34.3707 78.9653 35.1407 78.9799 35.742C79.0093 36.3433 79.0679 36.8127 79.1559 37.15C79.2439 37.4873 79.3833 37.7367 79.5739 37.898C79.7646 38.0447 80.0286 38.14 80.3659 38.184C80.7033 38.2133 81.1286 38.228 81.6419 38.228Z"
        fill="#0920F5" />
    <circle cx="10.5" cy="32.5" r="10.5" fill="#0920F5" />
    <circle cx="17.5" cy="14.5" r="6.5" fill="#0920F5" />
    <circle cx="5" cy="4" r="4" fill="#0920F5" />
</svg>